<svg width="32" height="32" xmlns="http://www.w3.org/2000/svg" viewBox="0 0 40.9 40.4"><path fill="#fff" d="M20.7 39.5c-10.5 0-19-8.5-19-19s8.5-19 19-19 19 8.5 19 19c.1 10.5-8.5 19-19 19z"/><path fill="#2e2e2e" d="M14.6 22.2c.3.1.6 0 .7-.3.1-.2.2-.8.3-1 .1-.3.1-.4-.2-.7-.5-.6-.9-1.4-.9-2.5 0-3.3 2.5-6.2 6.4-6.2 3.5 0 5.4 2.1 5.4 5 0 3.7-1.7 6.9-4.1 6.9-1.4 0-2.4-1.1-2-2.5.4-1.6 1.1-3.4 1.1-4.6 0-1.1-.6-1.9-1.8-1.9-1.4 0-2.5 1.4-2.5 3.4 0 1.2.4 2.1.4 2.1s-1.4 6-1.7 7.1c-.5 2.1-.1 4.7 0 4.9 0 .2.2.2.3.1.1-.2 1.8-2.2 2.3-4.2.2-.6.9-3.6.9-3.6.5.9 1.8 1.6 3.2 1.6 4.2 0 7-3.8 7-8.9 0-3.9-3.3-7.4-8.2-7.4-6.2 0-9.3 4.4-9.3 8.1.1 1.9.9 3.9 2.7 4.6z"/></svg>