<svg xmlns="http://www.w3.org/2000/svg" viewBox="0 0 45 45" width="36" height="36"><path fill="#fff" d="M22.1 41.6c-10.5 0-19-8.5-19-19s8.5-19 19-19 19 8.5 19 19c.1 10.4-8.4 19-19 19z"/><path fill="#2e2e2e" d="M12 28.9c1.8 1.2 4 1.9 6.4 1.9 7.7 0 12.1-6.5 11.8-12.4.8-.6 1.5-1.3 2.1-2.2-.7.3-1.5.6-2.4.7.9-.5 1.5-1.3 1.8-2.3-.8.5-1.7.8-2.6 1-.8-.8-1.8-1.3-3-1.3-2.7 0-4.7 2.5-4.1 5.1-3.5-.2-6.5-1.8-8.6-4.3-1.1 1.9-.6 4.3 1.3 5.6-.7 0-1.3-.2-1.9-.5 0 1.9 1.3 3.7 3.3 4.1-.6.2-1.2.2-1.9.1.5 1.7 2.1 2.9 3.9 2.9a8.23 8.23 0 01-6.1 1.6z"/></svg>