<?xml version="1.0" encoding="utf-8"?>
<svg version="1.1" id="Layer_1" width="32" height="32" xmlns="http://www.w3.org/2000/svg" xmlns:xlink="http://www.w3.org/1999/xlink" x="0px" y="0px"
	 viewBox="0 0 40.9 40.4" enable-background="new 0 0 40.9 40.4" xml:space="preserve">
<g id="XMLID_2010_">
	<path id="XMLID_2012_" fill="#ffffff" stroke="none" stroke-width="2" stroke-miterlimit="10" d="M20.7,39.5L20.7,39.5
		c-10.5,0-19-8.5-19-19v0c0-10.5,8.5-19,19-19l0,0c10.5,0,19,8.5,19,19v0C39.8,31,31.2,39.5,20.7,39.5z"/>
	<path id="XMLID_2011_" fill="#2e2e2e" d="M14.6,22.2c0.3,0.1,0.6,0,0.7-0.3c0.1-0.2,0.2-0.8,0.3-1c0.1-0.3,0.1-0.4-0.2-0.7
		c-0.5-0.6-0.9-1.4-0.9-2.5c0-3.3,2.5-6.2,6.4-6.2c3.5,0,5.4,2.1,5.4,5c0,3.7-1.7,6.9-4.1,6.9c-1.4,0-2.4-1.1-2-2.5
		c0.4-1.6,1.1-3.4,1.1-4.6c0-1.1-0.6-1.9-1.8-1.9c-1.4,0-2.5,1.4-2.5,3.4c0,1.2,0.4,2.1,0.4,2.1s-1.4,6-1.7,7.1
		c-0.5,2.1-0.1,4.7,0,4.9c0,0.2,0.2,0.2,0.3,0.1c0.1-0.2,1.8-2.2,2.3-4.2c0.2-0.6,0.9-3.6,0.9-3.6c0.5,0.9,1.8,1.6,3.2,1.6
		c4.2,0,7-3.8,7-8.9c0-3.9-3.3-7.4-8.2-7.4c-6.2,0-9.3,4.4-9.3,8.1C12,19.5,12.8,21.5,14.6,22.2z"/>
</g>
</svg>
